<svg aria-hidden="true" style="position: absolute; width: 0; height: 0; overflow: hidden;" version="1.1" xmlns="http://www.w3.org/2000/svg" xmlns:xlink="http://www.w3.org/1999/xlink">
<defs>
<symbol id="icon-files-empty" viewBox="0 0 32 32">
<path d="M28.681 11.159c-0.694-0.947-1.662-2.053-2.724-3.116s-2.169-2.030-3.116-2.724c-1.612-1.182-2.393-1.319-2.841-1.319h-11.5c-1.379 0-2.5 1.122-2.5 2.5v23c0 1.378 1.121 2.5 2.5 2.5h19c1.378 0 2.5-1.122 2.5-2.5v-15.5c0-0.448-0.137-1.23-1.319-2.841zM24.543 9.457c0.959 0.959 1.712 1.825 2.268 2.543h-4.811v-4.811c0.718 0.556 1.584 1.309 2.543 2.268v0zM28 29.5c0 0.271-0.229 0.5-0.5 0.5h-19c-0.271 0-0.5-0.229-0.5-0.5v-23c0-0.271 0.229-0.5 0.5-0.5 0 0 11.499-0 11.5 0v7c0 0.552 0.448 1 1 1h7v15.5z"></path>
<path d="M18.841 1.319c-1.612-1.182-2.393-1.319-2.841-1.319h-11.5c-1.378 0-2.5 1.121-2.5 2.5v23c0 1.207 0.86 2.217 2 2.45v-25.45c0-0.271 0.229-0.5 0.5-0.5h15.215c-0.301-0.248-0.595-0.477-0.873-0.681z"></path>
</symbol>
<symbol id="icon-file-text2" viewBox="0 0 32 32">
<path d="M28.681 7.159c-0.694-0.947-1.662-2.053-2.724-3.116s-2.169-2.030-3.116-2.724c-1.612-1.182-2.393-1.319-2.841-1.319h-15.5c-1.378 0-2.5 1.121-2.5 2.5v27c0 1.378 1.122 2.5 2.5 2.5h23c1.378 0 2.5-1.122 2.5-2.5v-19.5c0-0.448-0.137-1.23-1.319-2.841zM24.543 5.457c0.959 0.959 1.712 1.825 2.268 2.543h-4.811v-4.811c0.718 0.556 1.584 1.309 2.543 2.268zM28 29.5c0 0.271-0.229 0.5-0.5 0.5h-23c-0.271 0-0.5-0.229-0.5-0.5v-27c0-0.271 0.229-0.5 0.5-0.5 0 0 15.499-0 15.5 0v7c0 0.552 0.448 1 1 1h7v19.5z"></path>
<path d="M23 26h-14c-0.552 0-1-0.448-1-1s0.448-1 1-1h14c0.552 0 1 0.448 1 1s-0.448 1-1 1z"></path>
<path d="M23 22h-14c-0.552 0-1-0.448-1-1s0.448-1 1-1h14c0.552 0 1 0.448 1 1s-0.448 1-1 1z"></path>
<path d="M23 18h-14c-0.552 0-1-0.448-1-1s0.448-1 1-1h14c0.552 0 1 0.448 1 1s-0.448 1-1 1z"></path>
</symbol>
<symbol id="icon-file-play" viewBox="0 0 32 32">
<path d="M12 12l10 7-10 7v-14z"></path>
<path d="M28.681 7.159c-0.694-0.947-1.662-2.053-2.724-3.116s-2.169-2.030-3.116-2.724c-1.612-1.182-2.393-1.319-2.841-1.319h-15.5c-1.378 0-2.5 1.121-2.5 2.5v27c0 1.378 1.122 2.5 2.5 2.5h23c1.378 0 2.5-1.122 2.5-2.5v-19.5c0-0.448-0.137-1.23-1.319-2.841zM24.543 5.457c0.959 0.959 1.712 1.825 2.268 2.543h-4.811v-4.811c0.718 0.556 1.584 1.309 2.543 2.268zM28 29.5c0 0.271-0.229 0.5-0.5 0.5h-23c-0.271 0-0.5-0.229-0.5-0.5v-27c0-0.271 0.229-0.5 0.5-0.5 0 0 15.499-0 15.5 0v7c0 0.552 0.448 1 1 1h7v19.5z"></path>
</symbol>
<symbol id="icon-folder-upload" viewBox="0 0 32 32">
<path d="M18 8l-4-4h-14v26h32v-22h-14zM16 15l7 7h-5v8h-4v-8h-5l7-7z"></path>
</symbol>
<symbol id="icon-mobile" viewBox="0 0 32 32">
<path d="M23 0h-14c-1.65 0-3 1.35-3 3v26c0 1.65 1.35 3 3 3h14c1.65 0 3-1.35 3-3v-26c0-1.65-1.35-3-3-3zM12 1.5h8v1h-8v-1zM16 30c-1.105 0-2-0.895-2-2s0.895-2 2-2 2 0.895 2 2-0.895 2-2 2zM24 24h-16v-20h16v20z"></path>
</symbol>
<symbol id="icon-forward" viewBox="0 0 32 32">
<path d="M8.192 0c-3.554 6.439-4.153 16.259 9.808 15.932v-7.932l12 12-12 12v-7.762c-16.718 0.436-18.58-14.757-9.808-24.238z"></path>
</symbol>
<symbol id="icon-bubble" viewBox="0 0 32 32">
<path d="M16 2c8.837 0 16 5.82 16 13s-7.163 13-16 13c-0.849 0-1.682-0.054-2.495-0.158-3.437 3.437-7.539 4.053-11.505 4.144v-0.841c2.142-1.049 4-2.961 4-5.145 0-0.305-0.024-0.604-0.068-0.897-3.619-2.383-5.932-6.024-5.932-10.103 0-7.18 7.163-13 16-13z"></path>
</symbol>
<symbol id="icon-share" viewBox="0 0 32 32">
<path d="M8 20c0 0 1.838-6 12-6v6l12-8-12-8v6c-8 0-12 4.99-12 10zM22 24h-18v-12h3.934c0.315-0.372 0.654-0.729 1.015-1.068 1.374-1.287 3.018-2.27 4.879-2.932h-13.827v20h26v-8.395l-4 2.667v1.728z"></path>
</symbol>
<symbol id="icon-new-tab" viewBox="0 0 32 32">
<path d="M6 2v24h24v-24h-24zM28 24h-20v-20h20v20zM4 28v-21l-2-2v25h25l-2-2h-21z"></path>
<path d="M11 8l5 5-6 6 3 3 6-6 5 5v-13z"></path>
</symbol>
</defs>
</svg>
